<svg xmlns="http://www.w3.org/2000/svg" width="172" height="172" viewBox="0 0 172 172">
  <g fill="none">
    <circle cx="86" cy="86" r="86" fill="#FF5882"/>
    <path fill="#FFF" d="M67.5260465,53.5224242 L103.821358,53.5224242 C104.701054,53.5224242 105.398994,52.395693 105.398994,50.9964047 L105.398994,49.3513284 C105.398994,47.9496066 104.701054,46.825309 103.821358,46.825309 L67.5260465,46.825309 C66.6463511,46.825309 65.948411,47.9520402 65.948411,49.3513284 L65.948411,50.9964047 C65.948411,52.3981265 66.6463511,53.5224242 67.5260465,53.5224242 Z M68.1634016,66.310702 L103.154922,66.310702 C104.366624,66.310702 105.36749,65.1839708 105.36749,63.7846825 L105.36749,59.3994348 C105.36749,57.997713 104.366624,56.8734153 103.154922,56.8734153 L68.1634016,56.8734153 C66.9492766,56.8734153 65.9508344,58.0001466 65.9508344,59.3994348 L65.9508344,63.7846825 C65.9508344,65.1864043 66.9517,66.310702 68.1634016,66.310702 Z M118.800414,82.4499709 L105.36749,82.4499709 L105.36749,72.8885735 C105.36749,71.4576492 104.216373,70.2700793 102.759908,70.2700793 L68.555993,70.2700793 C67.1310318,70.2700793 65.948411,71.4260131 65.948411,72.8885735 L65.948411,82.4499709 L53.2425073,82.4499709 C49.4208003,82.4499709 47.4820776,87.0177345 50.1187404,89.7579059 L82.5632642,123.496571 C84.2620699,125.263324 87.0514072,125.263324 88.7792937,123.525773 L121.890253,89.7871084 C124.589925,87.046937 122.648779,82.4499709 118.797991,82.4499709 L118.800414,82.4499709 Z" transform="rotate(-135 86.025 85.825)"/>
  </g>
</svg>
