<svg xmlns="http://www.w3.org/2000/svg" width="172" height="172" viewBox="0 0 172 172">
  <g fill="none">
    <circle cx="86" cy="86" r="86" fill="#37B6AB"/>
    <path fill="#FFF" d="M67.3260465,53.5224242 L103.621358,53.5224242 C104.501054,53.5224242 105.198994,52.395693 105.198994,50.9964047 L105.198994,49.3513284 C105.198994,47.9496066 104.501054,46.825309 103.621358,46.825309 L67.3260465,46.825309 C66.4463511,46.825309 65.748411,47.9520402 65.748411,49.3513284 L65.748411,50.9964047 C65.748411,52.3981265 66.4463511,53.5224242 67.3260465,53.5224242 Z M67.9634016,66.310702 L102.954922,66.310702 C104.166624,66.310702 105.16749,65.1839708 105.16749,63.7846825 L105.16749,59.3994348 C105.16749,57.997713 104.166624,56.8734153 102.954922,56.8734153 L67.9634016,56.8734153 C66.7492766,56.8734153 65.7508344,58.0001466 65.7508344,59.3994348 L65.7508344,63.7846825 C65.7508344,65.1864043 66.7517,66.310702 67.9634016,66.310702 Z M118.600414,82.4499709 L105.16749,82.4499709 L105.16749,72.8885735 C105.16749,71.4576492 104.016373,70.2700793 102.559908,70.2700793 L68.355993,70.2700793 C66.9310318,70.2700793 65.748411,71.4260131 65.748411,72.8885735 L65.748411,82.4499709 L53.0425073,82.4499709 C49.2208003,82.4499709 47.2820776,87.0177345 49.9187404,89.7579059 L82.3632642,123.496571 C84.0620699,125.263324 86.8514072,125.263324 88.5792937,123.525773 L121.690253,89.7871084 C124.389925,87.046937 122.448779,82.4499709 118.597991,82.4499709 L118.600414,82.4499709 Z" transform="rotate(-45 85.825 85.825)"/>
  </g>
</svg>
