<svg xmlns="http://www.w3.org/2000/svg" width="206" height="172" viewBox="0 0 206 172">
  <g fill="none" fill-rule="evenodd">
    <circle cx="120" cy="86" r="86" fill="#FC3F4D" fill-rule="nonzero"/>
    <path fill="#FFF" d="M152.240146,107.114461 L154.212804,109.08712 C154.705969,109.580284 154.952551,110.073449 154.952551,110.813196 C154.952551,111.434583 154.705969,112.046107 154.212804,112.539272 L143.846485,122.905591 C143.35332,123.398756 142.860156,123.645338 142.120409,123.645338 C141.499022,123.645338 140.887498,123.398756 140.394333,122.905591 L137.553705,120.064963 C137.06054,119.571798 136.439153,119.325216 135.827629,119.196993 C135.087882,119.078634 134.466495,119.196993 133.854971,119.571798 C131.014343,121.179515 128.055355,122.284204 125.096368,123.152173 C122.13738,123.89192 119.296752,124.513308 116.456124,124.75989 C115.716377,124.75989 115.09499,124.64153 114.601826,124.138502 C114.108661,123.635475 113.733856,123.152173 113.615496,122.530786 L111.268033,109.452061 C111.149673,108.830674 111.268033,108.21915 111.642838,107.597763 C112.017643,106.976375 112.510808,106.729793 113.122332,106.611433 C117.314231,105.743464 121.022828,104.510552 124.47498,103.031059 C127.927132,101.551565 130.649401,99.697266 132.740419,97.4780254 C134.8413,95.3771443 136.074211,93.5327087 136.567376,91.9249922 C137.06054,90.3172757 136.685735,88.8377819 135.581047,87.7330933 C134.959659,87.1117059 134.219912,86.8651236 133.480166,86.9933464 C132.612196,87.1117059 131.75409,87.486511 130.76776,87.9796756 C129.781431,88.4728402 128.666879,89.212587 127.562191,90.0805567 C126.447639,90.9485263 125.214727,91.8066327 123.863456,92.6746024 C122.630545,93.542572 121.269411,94.5289012 119.543335,95.6335898 C117.935618,96.7481418 116.091183,97.7344709 114.236884,98.7208001 C112.264225,99.7071293 110.291567,100.446876 108.062463,101.186623 C105.843223,101.80801 103.623982,102.172952 101.394878,102.172952 C99.1657742,102.172952 96.8281741,101.679788 94.6089335,100.693458 C92.3896929,99.7071293 90.0422295,98.2276355 87.9413484,96.0083949 C85.8404673,93.9075138 84.2426141,91.6882732 83.1280621,89.4690326 C82.0135102,87.249792 81.4019861,85.0305514 81.1554038,82.683088 C80.9088215,80.4638474 81.1554038,78.2446068 81.6485684,76.1437257 C82.141733,74.0428446 83.0097026,71.9518268 83.9960318,69.8509457 C84.3708368,69.2295583 84.4891963,68.6180342 84.3708368,67.8782873 C84.2524774,67.1385405 83.9960318,66.6453759 83.5028672,66.1522113 L81.2836266,63.9329707 C80.790462,63.4398061 80.5438797,62.9466416 80.5438797,62.2068947 C80.5438797,61.5855073 80.790462,60.9739832 81.2836266,60.4808187 L91.649946,50.1144992 C92.1431106,49.6213346 92.6362752,49.3747523 93.3760221,49.3747523 C94.1157689,49.3747523 94.6089335,49.6213346 95.1020981,50.1144992 L96.9563969,51.968798 C97.4495615,52.4619626 98.0709488,52.7085449 98.6824729,52.8367677 C99.4222198,52.9551272 100.043607,52.7184082 100.655131,52.3436031 C105.715,49.3846156 111.396256,47.5303168 117.935618,46.79057 C118.557005,46.6722105 119.16853,46.9089295 119.661694,47.2837345 C120.154859,47.6585396 120.529664,48.2700637 120.529664,48.8914511 L122.877127,62.0983985 C122.995487,62.7197859 122.877127,63.3313099 122.502322,63.9526973 C122.127517,64.5740847 121.634352,64.820667 121.022828,64.9390265 C117.195871,65.8069961 113.862079,67.0399076 111.277896,68.3911785 C108.565491,69.8706722 106.34625,71.350166 104.738534,73.076242 C104.245369,73.5694066 103.623982,74.190794 103.012458,74.9305408 C102.400934,75.6702877 101.779546,76.4100346 101.404741,77.1497814 C100.911577,77.8895283 100.783354,78.6292752 100.664995,79.4972448 C100.664995,80.2369917 100.911577,80.9767386 101.651324,81.5981259 C102.272711,82.2195133 103.3774,82.3378728 104.856893,81.8447082 C106.336387,81.3515436 107.944104,80.7301563 109.541957,79.8720499 C111.149673,79.0040802 112.629167,78.0177511 114.108661,77.1596447 C115.469795,76.1733156 116.327902,75.5519282 116.702707,75.3053459 C118.675365,73.9442117 121.022828,72.5929407 123.616874,71.2318065 C126.21092,69.8706722 129.051548,68.8843431 132.010535,68.3911785 C134.969523,67.8980139 138.056733,68.0163734 141.262303,68.7659836 C144.467872,69.5155937 147.555083,71.4783888 150.51407,74.4472395 C155.080774,79.0139435 157.428238,83.8272298 157.428238,88.7588756 C157.428238,93.8187442 155.702162,98.7602533 152.240146,103.691899 C151.865341,104.313286 151.746982,104.924811 151.746982,105.546198 C151.500399,106.167585 151.746982,106.779109 152.240146,107.153914 L152.240146,107.114461 Z" transform="rotate(45 118.986 85.76)"/>
    <path fill="#FFF" d="M29.9010498,12.9713237 L29.9010498,24.680699 L-0.0645212876,24.680699 C-3.07575301,24.680699 -5.5,27.0962695 -5.5,30.0967238 L-5.5,47.8771939 C-5.5,50.8776482 -3.07575301,53.2932186 -0.0645212876,53.2932186 L29.9010498,53.2932186 L29.9010498,65.002594 C29.9010498,71.5182004 37.6140293,74.8812828 42.4625233,70.5648397 L69.1938084,46.4149842 C73.6020639,42.4611691 73.6020639,35.5829346 69.1938084,31.6349684 L42.4625233,7.48511286 C37.6140293,3.0926349 29.9010498,6.46156607 29.9010498,12.9713237 Z" transform="rotate(-90 33.5 39)"/>
    <path fill="#FC3F4D" d="M40.7699099,41.6366046 L40.7699099,9.84877815 C40.7699099,8.83847931 39.9636426,8 38.9435022,8 L26.5418856,8 C25.5438115,8 24.7154779,8.81614277 24.7154779,9.84877815 L24.7154779,41.6366046 L10.0382064,41.6366046 C7.36139898,41.6366046 6.00347509,44.8616571 7.85025158,46.7963451 L30.5751079,70.6174048 C31.7649887,71.8648146 33.7187017,71.8648146 34.9289514,70.6380232 L58.120594,46.8169634 C60.011503,44.8822755 58.6518817,41.6366046 55.9547054,41.6366046 L40.7699099,41.6366046 Z" transform="matrix(1 0 0 -1 0 79.556)"/>
  </g>
</svg>
