<svg xmlns="http://www.w3.org/2000/svg" width="206" height="172" viewBox="0 0 206 172">
  <g fill="none" fill-rule="evenodd">
    <circle cx="120" cy="86" r="86" fill="#3BCCDC" fill-rule="nonzero"/>
    <path fill="#FFF" d="M153.213977,107.114461 L155.186636,109.08712 C155.6798,109.580284 155.926383,110.073449 155.926383,110.813196 C155.926383,111.434583 155.6798,112.046107 155.186636,112.539272 L144.820316,122.905591 C144.327152,123.398756 143.833987,123.645338 143.09424,123.645338 C142.472853,123.645338 141.861329,123.398756 141.368164,122.905591 L138.527536,120.064963 C138.034372,119.571798 137.412984,119.325216 136.80146,119.196993 C136.061713,119.078634 135.440326,119.196993 134.828802,119.571798 C131.988174,121.179515 129.029186,122.284204 126.070199,123.152173 C123.111212,123.89192 120.270584,124.513308 117.429956,124.75989 C116.690209,124.75989 116.068821,124.64153 115.575657,124.138502 C115.082492,123.635475 114.707687,123.152173 114.589328,122.530786 L112.241864,109.452061 C112.123505,108.830674 112.241864,108.21915 112.616669,107.597763 C112.991474,106.976375 113.484639,106.729793 114.096163,106.611433 C118.288062,105.743464 121.99666,104.510552 125.448812,103.031059 C128.900964,101.551565 131.623232,99.697266 133.71425,97.4780254 C135.815131,95.3771443 137.048043,93.5327087 137.541207,91.9249922 C138.034372,90.3172757 137.659567,88.8377819 136.554878,87.7330933 C135.933491,87.1117059 135.193744,86.8651236 134.453997,86.9933464 C133.586027,87.1117059 132.727921,87.486511 131.741592,87.9796756 C130.755262,88.4728402 129.640711,89.212587 128.536022,90.0805567 C127.42147,90.9485263 126.188558,91.8066327 124.837288,92.6746024 C123.604376,93.542572 122.243242,94.5289012 120.517166,95.6335898 C118.909449,96.7481418 117.065014,97.7344709 115.210715,98.7208001 C113.238057,99.7071293 111.265398,100.446876 109.036294,101.186623 C106.817054,101.80801 104.597813,102.172952 102.368709,102.172952 C100.139605,102.172952 97.8020053,101.679788 95.5827647,100.693458 C93.3635241,99.7071293 91.0160607,98.2276355 88.9151796,96.0083949 C86.8142985,93.9075138 85.2164453,91.6882732 84.1018933,89.4690326 C82.9873414,87.249792 82.3758173,85.0305514 82.129235,82.683088 C81.8826527,80.4638474 82.129235,78.2446068 82.6223996,76.1437257 C83.1155642,74.0428446 83.9835338,71.9518268 84.969863,69.8509457 C85.3446681,69.2295583 85.4630276,68.6180342 85.3446681,67.8782873 C85.2263086,67.1385405 84.969863,66.6453759 84.4766984,66.1522113 L82.2574578,63.9329707 C81.7642932,63.4398061 81.5177109,62.9466416 81.5177109,62.2068947 C81.5177109,61.5855073 81.7642932,60.9739832 82.2574578,60.4808187 L92.6237773,50.1144992 C93.1169418,49.6213346 93.6101064,49.3747523 94.3498533,49.3747523 C95.0896002,49.3747523 95.5827647,49.6213346 96.0759293,50.1144992 L97.9302281,51.968798 C98.4233927,52.4619626 99.0447801,52.7085449 99.6563042,52.8367677 C100.396051,52.9551272 101.017438,52.7184082 101.628962,52.3436031 C106.688831,49.3846156 112.370087,47.5303168 118.909449,46.79057 C119.530837,46.6722105 120.142361,46.9089295 120.635525,47.2837345 C121.12869,47.6585396 121.503495,48.2700637 121.503495,48.8914511 L123.850958,62.0983985 C123.969318,62.7197859 123.850958,63.3313099 123.476153,63.9526973 C123.101348,64.5740847 122.608184,64.820667 121.99666,64.9390265 C118.169702,65.8069961 114.83591,67.0399076 112.251727,68.3911785 C109.539322,69.8706722 107.320082,71.350166 105.712365,73.076242 C105.219201,73.5694066 104.597813,74.190794 103.986289,74.9305408 C103.374765,75.6702877 102.753378,76.4100346 102.378573,77.1497814 C101.885408,77.8895283 101.757185,78.6292752 101.638826,79.4972448 C101.638826,80.2369917 101.885408,80.9767386 102.625155,81.5981259 C103.246542,82.2195133 104.351231,82.3378728 105.830725,81.8447082 C107.310218,81.3515436 108.917935,80.7301563 110.515788,79.8720499 C112.123505,79.0040802 113.602998,78.0177511 115.082492,77.1596447 C116.443626,76.1733156 117.301733,75.5519282 117.676538,75.3053459 C119.649196,73.9442117 121.99666,72.5929407 124.590705,71.2318065 C127.184751,69.8706722 130.025379,68.8843431 132.984366,68.3911785 C135.943354,67.8980139 139.030564,68.0163734 142.236134,68.7659836 C145.441704,69.5155937 148.528914,71.4783888 151.487901,74.4472395 C156.054605,79.0139435 158.402069,83.8272298 158.402069,88.7588756 C158.402069,93.8187442 156.675993,98.7602533 153.213977,103.691899 C152.839172,104.313286 152.720813,104.924811 152.720813,105.546198 C152.474231,106.167585 152.720813,106.779109 153.213977,107.153914 L153.213977,107.114461 Z" transform="rotate(45 119.96 85.76)"/>
    <path fill="#FFF" d="M29.9010498,12.9713237 L29.9010498,24.680699 L-0.0645212876,24.680699 C-3.07575301,24.680699 -5.5,27.0962695 -5.5,30.0967238 L-5.5,47.8771939 C-5.5,50.8776482 -3.07575301,53.2932186 -0.0645212876,53.2932186 L29.9010498,53.2932186 L29.9010498,65.002594 C29.9010498,71.5182004 37.6140293,74.8812828 42.4625233,70.5648397 L69.1938084,46.4149842 C73.6020639,42.4611691 73.6020639,35.5829346 69.1938084,31.6349684 L42.4625233,7.48511286 C37.6140293,3.0926349 29.9010498,6.46156607 29.9010498,12.9713237 Z" transform="matrix(0 1 1 0 -5.5 5.5)"/>
    <path fill="#3BCCDC" d="M40.7699099,41.6366046 L40.7699099,9.84877815 C40.7699099,8.83847931 39.9636426,8 38.9435022,8 L26.5418856,8 C25.5438115,8 24.7154779,8.81614277 24.7154779,9.84877815 L24.7154779,41.6366046 L10.0382064,41.6366046 C7.36139898,41.6366046 6.00347509,44.8616571 7.85025158,46.7963451 L30.5751079,70.6174048 C31.7649887,71.8648146 33.7187017,71.8648146 34.9289514,70.6380232 L58.120594,46.8169634 C60.011503,44.8822755 58.6518817,41.6366046 55.9547054,41.6366046 L40.7699099,41.6366046 Z"/>
  </g>
</svg>
