<svg xmlns="http://www.w3.org/2000/svg" xmlns:xlink="http://www.w3.org/1999/xlink" width="172" height="172" viewBox="0 0 172 172">
  <defs>
    <polygon id="total-login-count-a" points="0 0 171.635 0 171.635 171.634 0 171.634"/>
    <polygon id="total-login-count-c" points="0 .338 116.46 .338 116.46 78.357 0 78.357"/>
  </defs>
  <g fill="none" fill-rule="evenodd">
    <g transform="translate(0 .366)">
      <mask id="total-login-count-b" fill="#fff">
        <use xlink:href="#total-login-count-a"/>
      </mask>
      <path fill="#BBCC24" d="M85.81768,0.000475744681 C38.422897,0.000475744681 0.000292765957,38.42308 0.000292765957,85.817863 C0.000292765957,133.211548 38.422897,171.634152 85.81768,171.634152 C133.212829,171.634152 171.635067,133.211548 171.635067,85.817863 C171.635067,38.42308 133.212829,0.000475744681 85.81768,0.000475744681" mask="url(#total-login-count-b)"/>
    </g>
    <g transform="translate(0 46.842)">
      <mask id="total-login-count-d" fill="#fff">
        <use xlink:href="#total-login-count-c"/>
      </mask>
      <path fill="#FFF" d="M1.11230469,25.5453489 L69.6491677,25.5453489 L69.6491677,8.14054043 C69.6491677,4.98928085 71.5517804,2.14249787 74.461874,0.932276596 C77.3803847,-0.276114894 80.7343847,0.393953191 82.9656272,2.62519574 L114.171185,33.832583 C117.222538,36.8821064 117.222538,41.8119191 114.171185,44.8632723 L82.9656272,76.0688298 C80.7343847,78.3004383 77.3803847,78.9719702 74.461874,77.7617489 C71.5517804,76.5529915 69.6491677,73.7047447 69.6491677,70.5534851 L69.6491677,53.1490426 L1.11230469,53.1490426 C1.11230469,53.1490426 0.0303781193,44.6577602 0.0166144681,41.0331617 C0.00965412892,39.2001862 -0.0689138158,37.3194349 1.2979201e-14,35.6578128 C0.0955848336,33.3531099 0.349423099,31.5453489 0.349635745,31.5453489 C0.469694879,30.2716717 0.571121284,29.3091597 0.653914958,28.6578128 C0.740603271,27.9758263 0.893399847,26.9383384 1.11230469,25.5453489 Z" mask="url(#total-login-count-d)"/>
    </g>
  </g>
</svg>
