<svg xmlns="http://www.w3.org/2000/svg" width="205" height="172" viewBox="0 0 205 172">
  <g fill="none" fill-rule="evenodd">
    <circle cx="119" cy="86" r="86" fill="#45A9EF" fill-rule="nonzero"/>
    <path fill="#FFF" fill-rule="nonzero" d="M118.7,91 C131.158027,91 141.2,81.1637036 141.2,69 C141.2,56.8362964 131.106873,47 118.7,47 C106.241973,47 96.2,56.8362964 96.2,69 C96.2,81.1637036 106.245908,91 118.7,91 Z M118.682211,87 C100.055242,87 84.3787358,98.6710447 79.541215,114.622752 C77.9441758,119.809456 82.155255,125 87.9595066,125 L149.455184,125 C155.259436,125 159.424112,119.813296 157.873476,114.622752 C152.985685,98.6748838 137.309179,87 118.682211,87 Z"/>
    <path fill="#FFF" d="M29.9010498,12.9713237 L29.9010498,24.680699 L-0.0645212876,24.680699 C-3.07575301,24.680699 -5.5,27.0962695 -5.5,30.0967238 L-5.5,47.8771939 C-5.5,50.8776482 -3.07575301,53.2932186 -0.0645212876,53.2932186 L29.9010498,53.2932186 L29.9010498,65.002594 C29.9010498,71.5182004 37.6140293,74.8812828 42.4625233,70.5648397 L69.1938084,46.4149842 C73.6020639,42.4611691 73.6020639,35.5829346 69.1938084,31.6349684 L42.4625233,7.48511286 C37.6140293,3.0926349 29.9010498,6.46156607 29.9010498,12.9713237 Z" transform="matrix(0 1 1 0 -5.5 5.5)"/>
    <path fill="#45A9EF" d="M40.7699099,41.6366046 L40.7699099,9.84877815 C40.7699099,8.83847931 39.9636426,8 38.9435022,8 L26.5418856,8 C25.5438115,8 24.7154779,8.81614277 24.7154779,9.84877815 L24.7154779,41.6366046 L10.0382064,41.6366046 C7.36139898,41.6366046 6.00347509,44.8616571 7.85025158,46.7963451 L30.5751079,70.6174048 C31.7649887,71.8648146 33.7187017,71.8648146 34.9289514,70.6380232 L58.120594,46.8169634 C60.011503,44.8822755 58.6518817,41.6366046 55.9547054,41.6366046 L40.7699099,41.6366046 Z"/>
  </g>
</svg>
