<svg xmlns="http://www.w3.org/2000/svg" width="211" height="172" viewBox="0 0 211 172">
  <g fill="none" fill-rule="evenodd">
    <circle cx="86.8" cy="86" r="86" fill="#4E5AC2" transform="translate(38)"/>
    <g fill="#FFF" transform="translate(89 50)">
      <path d="M40 71L61.4214876 71C64.4323967 71 67 68.525 67 65.375L67 44 40 44 40 71zM4 65.375C4 68.414 6.475 71 9.625 71L31 71 31 44 4 44 4 65.375z"/>
      <path fill-rule="nonzero" d="M64.5369831,20.8859259 L53.7274316,20.8859259 C55.1456028,20.2192593 56.3482819,19.44 57.0034945,18.7733333 C61.2609202,14.5511111 61.2609202,7.55259259 57.1141526,3.33037037 C55.0378567,1.22074074 52.3092603,0.10962963 49.4700058,0.10962963 C46.7384974,0.10962963 44.009901,1.22074074 41.8258591,3.33037037 C40.0786255,5.10814815 38.4420501,9.44296296 37.0209668,13.997037 C36.3657542,13.7748148 35.7105416,13.6651852 35.0553291,13.6651852 C34.4001165,13.6651852 33.7449039,13.7748148 33.0896913,13.997037 C31.668608,9.44296296 30.0320326,4.99851852 28.2847991,3.22074074 C26.1007571,1.11111111 23.3721607,0 20.6406523,0 C17.9091439,0 15.1805475,1.11111111 12.9965055,3.22074074 C8.84682586,7.44296296 8.84682586,14.4444444 12.9965055,18.6666667 C13.7623762,19.4459259 14.9621433,20.2222222 16.4909726,20.8888889 L5.46010483,20.8888889 C2.5101922,20.8888889 0,23.3333333 0,26.4444444 L0,36.8888889 C0,38.557037 1.31042516,40 3.05765871,40 L30.6872452,40 L30.6872452,21.2237037 L39.4234129,21.2237037 L39.4234129,40 L66.9423413,40 C68.5818288,40 70,38.6666667 70,36.8888889 L70,26.4444444 C70,23.4459259 67.5975539,20.8888889 64.5398952,20.8888889 L64.5369831,20.8859259 Z M27.8450786,19.1081481 C22.3849738,17.5525926 17.9091439,15.8874074 16.8171229,14.7762963 C14.740827,12.6637037 14.740827,9.22074074 16.8171229,7.10814815 C17.9091439,6.10666667 19.219569,5.55259259 20.6377402,5.55259259 C22.0559115,5.55259259 23.3692487,6.10666667 24.3506115,7.10814815 C25.3319744,8.21925926 26.9714619,12.4414815 28.3896331,17.6651852 C28.278975,18.1096296 28.0605708,18.5540741 27.8421666,19.1081481 L27.8450786,19.1081481 Z M42.2597554,19.2207407 C42.1490973,18.6637037 41.9306931,18.2192593 41.6045428,17.6651852 C43.1333722,12.4414815 44.6622015,8.33185185 45.6464764,7.22074074 C46.6307513,6.21925926 47.9382644,5.66518519 49.3593477,5.66518519 C50.780431,5.66518519 52.0908561,6.21925926 53.072219,7.22074074 C54.0535818,8.22222222 54.6010483,9.55259259 54.6010483,10.9985185 C54.6010483,12.4444444 54.0535818,13.7777778 53.072219,14.7762963 C52.0908561,15.997037 47.7227723,17.6651852 42.2626674,19.2207407 L42.2597554,19.2207407 Z"/>
    </g>
    <circle cx="39" cy="39" r="39" fill="#FFF"/>
    <g fill="#4E5AC2" transform="translate(14 15)">
      <path d="M13.5665875,7.41567448 L15.1427875,8.09089215 C14.0494375,8.74814329 13.5560875,9.39081503 13.6808875,10.0028553 C13.8092875,10.6352184 14.3980375,11.1803996 15.4324375,11.6238195 C16.3852375,12.03219 17.5078375,12.2532373 18.8648875,12.2997735 C20.2030375,12.3452789 22.2673375,11.9757869 25.0027375,11.2005751 C25.6822375,11.0075085 26.2148875,10.895144 26.5847875,10.8671634 C26.9468875,10.8391827 27.2387875,10.879092 27.5039875,10.9930764 C27.6865375,11.071275 28.2430375,11.3092579 26.8445875,11.9089278 C25.9361875,12.2981536 24.9955375,12.4583797 24.0493375,12.3853355 C23.3006875,12.3280487 22.5425875,12.4635341 22.1120875,12.7322957 L21.2716375,13.2570069 C20.9042875,13.4861538 20.8298875,13.7792145 21.0721375,14.0369311 C21.3139375,14.2946478 21.8417875,14.4828546 22.4767375,14.5388159 C24.5521375,14.7217211 26.6006875,14.4871253 28.5688375,13.8448954 L30.6964375,14.7569179 C31.4525875,15.0809045 32.6774875,15.0809045 33.4333375,14.7576542 C34.1888875,14.4335203 34.1888875,13.9083673 33.4333375,13.5845279 L31.2316375,12.6408431 C32.1986875,12.0376389 32.7073375,11.4279548 32.7430375,10.8248978 C32.7856375,10.1193432 32.2051375,9.50347403 31.0181875,8.99466769 C30.1709875,8.63150809 29.2046875,8.40677915 28.1477875,8.32696062 C27.0907375,8.24640575 26.0887375,8.29132209 25.1714875,8.46023696 C24.2665375,8.62723736 22.8892375,8.96418349 21.0862375,9.45958856 C20.3015875,9.67297797 19.7693875,9.78180803 19.5026875,9.78342797 C19.2478375,9.78475337 19.0193875,9.74513863 18.8423875,9.66900177 C18.2141875,9.40038736 18.7420375,9.06064316 19.2953875,8.82354383 C19.9823875,8.52915776 20.7154375,8.39013802 21.4736875,8.40972449 C22.2338875,8.42945822 22.9508875,8.25524175 23.3035375,7.96630455 L23.7910375,7.56706461 C24.0994375,7.31464954 24.0829375,7.01186928 23.7479875,6.76534487 C23.4133375,6.51926227 22.8065875,6.36374867 22.1417875,6.35402907 C20.6989375,6.33370627 19.3073875,6.5230912 17.9072875,6.93028354 L16.3031875,6.24299 C15.5471875,5.91900333 14.3221375,5.91900333 13.5662875,6.24299 C12.8111875,6.56668214 12.8111875,7.09183508 13.5665875,7.41567448 Z"/>
      <path fill-rule="nonzero" d="M46.9075227,16.0281134 C47.0356259,15.4809089 47.1011775,14.9235339 47.1011775,14.3586081 L47.1011775,12.5729125 C47.1011775,9.00491129 44.5080627,5.74248784 39.799445,3.3867811 C35.4341859,1.20274031 29.6635416,0 23.5505888,0 C17.4376359,0 11.6671417,1.20274031 7.30173254,3.3867811 C2.59311483,5.74248784 0,9.00491129 0,12.5729125 L0,14.3586081 C0,17.8771436 2.52306308,21.0978063 7.10822771,23.4454999 C6.98102453,23.9900847 6.89897247,24.6687354 6.89897247,25.106992 L6.89897247,25.4327567 C2.44566114,27.7708962 0,30.9473326 0,34.4120876 L0,36.1977833 C0,38.6037262 2.3979508,40.8018793 4.6097561,42.7458343 C6.89897247,44.1028449 8.8189166,45.031389 12.9881861,45.9051114 C17.1763349,46.7827903 22.2777031,47.2950512 28.0925085,46.8168661 C38.6463064,45.9489663 46.097561,40.0318131 46.6478662,38.734556 C46.9468237,37.9127476 47.1010275,37.0642802 47.1010275,36.1977833 L47.1010275,35.8720186 C51.5543389,33.5338791 54,30.3574428 54,26.8925336 L54,25.1068379 C54.00015,21.5924631 51.4827871,18.3751906 46.9075227,16.0281134 Z M3.29123228,11.0618207 C3.97329933,9.28028566 5.83109578,7.55052782 8.61531538,6.15762972 C12.5796145,4.17422543 17.8837471,3.08197388 23.5505888,3.08197388 C29.2174304,3.08197388 34.521713,4.17422543 38.4858621,6.15762972 C41.2702318,7.55052782 43.1278782,9.28043976 43.8099452,11.0618207 C41.400285,15.3676464 33.0282757,18.5072532 23.5504388,18.5072532 C14.0726018,18.5072532 5.70074252,15.3678005 3.29123228,11.0618207 Z M3.29123228,32.9011499 C3.84579614,31.4527763 5.18142954,30.0396912 7.15667892,28.8129115 C7.91764794,31.6219766 10.3522088,34.1533559 14.200855,36.0788191 C18.5662642,38.2628599 24.3367584,39.4656002 30.4497112,39.4656002 C31.0471762,39.4656002 31.640441,39.4506526 32.2304058,39.4280001 C29.561689,40.0175817 26.6145654,40.3467365 23.5507388,40.3467365 C14.0729018,40.3465824 5.70074252,37.2069756 3.29123228,32.9011499 Z M30.4495612,31.0414869 C22.1744544,31.0414869 14.7428186,28.6480259 11.3858846,25.1747955 C15.0110253,26.3172832 19.1922298,26.9315206 23.5505888,26.9315206 C29.6635416,26.9315206 35.4341859,25.7287803 39.799445,23.5448936 C42.4428111,22.2224186 44.4192605,20.6140905 45.6446411,18.8265457 C48.2833571,20.1957126 50.0486012,21.8710736 50.7090677,23.5960543 C48.2995575,27.901726 39.9273982,31.0414869 30.4495612,31.0414869 Z"/>
    </g>
  </g>
</svg>
