<svg xmlns="http://www.w3.org/2000/svg" width="172" height="172" viewBox="0 0 172 172">
  <g fill="none" fill-rule="evenodd">
    <circle cx="86" cy="86" r="86" fill="#7859E9" fill-rule="nonzero"/>
    <path fill="#FFF" fill-rule="nonzero" d="M111.2,1.6 C110.5,0.9 109.6,0.5 108.6,0.5 L4.6,0.5 C3.6,0.5 2.7,0.9 2,1.6 C1.3,2.3 0.9,3.2 0.9,4.2 L0.9,71.1 C0.9,72.1 1.3,73 2,73.7 C2.7,74.4 3.6,74.8 4.6,74.8 L108.7,74.8 C109.7,74.8 110.6,74.4 111.3,73.7 C112,73 112.4,72.1 112.4,71.1 L112.4,4.3 C112.3,3.3 112,2.4 111.2,1.6 Z M104.9,52.6 C100.8,52.6 97.3,54.1 94.4,57 C91.5,59.9 90,63.4 90,67.5 L23.1,67.5 C23.1,63.4 21.6,59.9 18.7,57 C15.8,54.1 12.3,52.6 8.2,52.6 L8.2,22.8 C12.3,22.8 15.8,21.3 18.7,18.4 C21.6,15.5 23.1,12 23.1,7.9 L90,7.9 C90,12 91.4,15.5 94.4,18.4 C97.3,21.3 100.8,22.8 104.9,22.8 L104.9,52.6 Z" transform="translate(29 48)"/>
    <path fill="#FFF" d="M100.222213,95.3724603 L101.094567,96.282918 C101.312656,96.5105324 101.4217,96.7381468 101.4217,97.0795685 C101.4217,97.3663626 101.312656,97.6486045 101.094567,97.8762189 L96.5103465,102.660674 C96.292258,102.888288 96.0741695,103.002096 95.7470367,103.002096 C95.4722452,103.002096 95.2018154,102.888288 94.9837269,102.660674 L93.727537,101.349615 C93.5094485,101.122001 93.234657,101.008193 92.9642272,100.949014 C92.6370944,100.894386 92.3623029,100.949014 92.0918731,101.122001 C90.8356833,101.864024 89.5271521,102.37388 88.218621,102.774481 C86.9100899,103.115903 85.6539001,103.402697 84.3977102,103.516504 C84.0705774,103.516504 83.7957859,103.461877 83.5776974,103.22971 C83.3596088,102.997543 83.1938616,102.774481 83.1415203,102.487687 L82.103419,96.4513527 C82.0510777,96.1645585 82.103419,95.8823166 82.2691663,95.5955224 C82.4349135,95.3087283 82.653002,95.1949211 82.9234318,95.1402936 C84.7771842,94.7396922 86.4172099,94.1706562 87.9438295,93.4878129 C89.4704491,92.8049696 90.6742978,91.9491394 91.5989931,90.9248745 C92.5280502,89.9552371 93.0732715,89.1039592 93.29136,88.3619361 C93.5094485,87.6199131 93.3437012,86.9370699 92.8551829,86.4272136 C92.5803914,86.1404194 92.2532586,86.0266122 91.9261258,86.0857919 C91.5422901,86.1404194 91.162816,86.3134064 90.726639,86.5410208 C90.290462,86.7686352 89.7975819,87.1100568 89.3090636,87.5106582 C88.8161836,87.9112596 88.2709623,88.3073087 87.6733997,88.7079101 C87.1281784,89.1085114 86.5262541,89.5637403 85.7629443,90.0735966 C85.0519758,90.5880052 84.2363247,91.043234 83.4163119,91.4984629 C82.5439578,91.9536917 81.6716037,92.2951133 80.6858436,92.636535 C79.7044453,92.9233291 78.723047,93.0917638 77.7372868,93.0917638 C76.7515267,93.0917638 75.7177872,92.8641494 74.7363888,92.4089206 C73.7549905,91.9536917 72.7168892,91.2708484 71.7878321,90.2465836 C70.858775,89.2769461 70.1521682,88.2526812 69.6592881,87.2284163 C69.1664081,86.2041514 68.8959783,85.1798865 68.7869341,84.0964419 C68.6778898,83.072177 68.7869341,82.0479121 69.0050226,81.0782747 C69.2231111,80.1086372 69.6069469,79.1435521 70.0431239,78.1739147 C70.2088712,77.8871205 70.2612124,77.6048786 70.2088712,77.263457 C70.15653,76.9220353 70.0431239,76.6944209 69.8250354,76.4668065 L68.8436371,75.4425416 C68.6255486,75.2149272 68.5165043,74.9873128 68.5165043,74.6458911 C68.5165043,74.359097 68.6255486,74.0768551 68.8436371,73.8492407 L73.4278577,69.0647855 C73.6459462,68.8371711 73.8640348,68.7233639 74.1911675,68.7233639 C74.5183003,68.7233639 74.7363888,68.8371711 74.9544774,69.0647855 L75.7744902,69.9206158 C75.9925787,70.1482302 76.2673702,70.2620374 76.5378,70.3212171 C76.8649328,70.3758446 77.1397243,70.2665897 77.4101541,70.0936027 C79.6477423,68.7279162 82.160122,67.872086 85.0519758,67.5306643 C85.3267673,67.4760369 85.597197,67.5852918 85.8152856,67.7582788 C86.0333741,67.9312657 86.1991214,68.2135076 86.1991214,68.5003018 L87.2372227,74.595816 C87.2895639,74.8826101 87.2372227,75.164852 87.0714754,75.4516462 C86.9057282,75.7384404 86.6876396,75.8522476 86.4172099,75.906875 C84.724843,76.3074764 83.2505646,76.8765125 82.1077808,77.500176 C80.9082939,78.1830192 79.9268956,78.8658625 79.215927,79.662513 C78.9978385,79.8901274 78.723047,80.1769216 78.4526172,80.5183432 C78.1821874,80.8597648 77.9073959,81.2011865 77.7416486,81.5426081 C77.5235601,81.8840297 77.4668571,82.2254514 77.4145158,82.6260527 C77.4145158,82.9674744 77.5235601,83.308896 77.8506929,83.5956902 C78.1254844,83.8824843 78.6140027,83.9371118 79.2682682,83.7094974 C79.9225338,83.481883 80.6335024,83.1950888 81.3401092,82.7990397 C82.0510777,82.3984383 82.7053433,81.9432095 83.3596088,81.5471604 C83.9615332,81.0919315 84.3410072,80.8051374 84.5067545,80.6913302 C85.3791085,80.0631144 86.4172099,79.4394508 87.5643555,78.811235 C88.7115011,78.1830192 89.967691,77.7277904 91.2762221,77.500176 C92.5847532,77.2725616 93.9499873,77.327189 95.3675627,77.6731629 C96.785138,78.0191369 98.1503722,78.9250423 99.4589033,80.2952811 C101.478403,82.4029906 102.516504,84.6245074 102.516504,86.9006516 C102.516504,89.2359755 101.753194,91.516672 100.222213,93.7928162 C100.056466,94.0796104 100.004125,94.3618523 100.004125,94.6486465 C99.8950803,94.9354406 100.004125,95.2176825 100.222213,95.3906695 L100.222213,95.3724603 Z" transform="rotate(45 85.517 85.517)"/>
  </g>
</svg>
