<svg xmlns="http://www.w3.org/2000/svg" width="172" height="172" viewBox="0 0 172 172">
  <g fill="none" fill-rule="evenodd">
    <circle cx="86" cy="86" r="86" fill="#30CE93" fill-rule="nonzero"/>
    <g fill="#FFF" transform="translate(45 13)">
      <path d="M67.9749364 56.8148148L35.0621006 56.8148148C31.6672452 56.8148148 28.8888889 53.9977314 28.8888889 50.5555556 28.8888889 47.1133797 31.6672452 44.2962963 35.0621006 44.2962963L59.3082698 44.2962963C62.7031252 44.2962963 65.4814815 47.1133797 65.4814815 50.5555556 65.4814815 53.9977314 62.7031252 56.8148148 59.3082698 56.8148148L67.9749364 56.8148148zM49.506545 78C46.1116896 78 43.3333333 75.1829166 43.3333333 71.7407407 43.3333333 68.2985649 46.1116896 65.4814815 49.506545 65.4814815L59.3082698 65.4814815C62.7031252 65.4814815 65.4814815 68.2985649 65.4814815 71.7407407 65.4814815 75.1829166 62.7031252 78 59.3082698 78L49.506545 78zM60.3035113 34.6666667L16.7335257 34.6666667C13.3564214 34.6666667 10.5925926 31.8495833 10.5925926 28.4074074 10.5925926 24.9652315 13.3564214 22.1481481 16.7335257 22.1481481L60.3035113 22.1481481C63.6806157 22.1481481 66.4444444 24.9652315 66.4444444 28.4074074 66.4444444 31.8495833 63.6806157 34.6666667 60.3035113 34.6666667zM59.3405483 12.5185185L6.14093314 12.5185185C2.76382876 12.5185185 0 9.70143512 0 6.25925926 0 2.81708339 2.76382876 1.42108547e-14 6.14093314 1.42108547e-14L59.3405483 1.42108547e-14C62.7176527 1.42108547e-14 65.4814815 2.81708339 65.4814815 6.25925926 65.4814815 9.70143512 62.7176527 12.5185185 59.3405483 12.5185185z" transform="rotate(90 18.185 60)"/>
      <path d="M49.5128671,6.28520706 C49.092719,5.26002221 47.8748985,4.8808858 46.9615331,5.41167677 L36.1807772,11.6355801 C35.0756051,12.2816285 35.2278327,13.9134316 36.4486977,14.3289651 L40.5618864,15.7332864 C40.4461935,15.9243711 39.5999211,20.1099044 29.7141097,47.1748251 C21.5376338,69.5600054 16.9632615,82.827679 15.9909926,86.9778459 C19.8548167,80.5409138 25.3735261,69.3112523 32.5471209,53.2888612 C47.5011633,19.8886594 47.9175222,18.5419289 47.9540568,18.3144471 L52.3351661,19.7945956 C53.5529866,20.1373349 54.6977378,18.9604955 54.201476,17.7836561 L49.5128671,6.28520706 Z" transform="rotate(25 35.156 46.075)"/>
    </g>
  </g>
</svg>
