<svg xmlns="http://www.w3.org/2000/svg" width="206" height="172" viewBox="0 0 206 172">
  <g fill="none" fill-rule="evenodd">
    <circle cx="119.8" cy="86" r="86" fill="#F77B37" fill-rule="nonzero"/>
    <path fill="#FFF" fill-rule="nonzero" d="M119.5,91 C131.958027,91 142,81.1637036 142,69 C142,56.8362964 131.906873,47 119.5,47 C107.041973,47 97,56.8362964 97,69 C97,81.1637036 107.045908,91 119.5,91 Z M119.482211,87 C100.855242,87 85.1787358,98.6710447 80.341215,114.622752 C78.7441758,119.809456 82.955255,125 88.7595066,125 L150.255184,125 C156.059436,125 160.224112,119.813296 158.673476,114.622752 C153.785685,98.6748838 138.109179,87 119.482211,87 Z"/>
    <path fill="#FFF" d="M29.9010498,12.9713237 L29.9010498,24.680699 L-0.0645212876,24.680699 C-3.07575301,24.680699 -5.5,27.0962695 -5.5,30.0967238 L-5.5,47.8771939 C-5.5,50.8776482 -3.07575301,53.2932186 -0.0645212876,53.2932186 L29.9010498,53.2932186 L29.9010498,65.002594 C29.9010498,71.5182004 37.6140293,74.8812828 42.4625233,70.5648397 L69.1938084,46.4149842 C73.6020639,42.4611691 73.6020639,35.5829346 69.1938084,31.6349684 L42.4625233,7.48511286 C37.6140293,3.0926349 29.9010498,6.46156607 29.9010498,12.9713237 Z" transform="rotate(-90 33.5 39)"/>
    <path fill="#FF6E1F" d="M40.7699099,40.6366046 L40.7699099,8.84877815 C40.7699099,7.83847931 39.9636426,7 38.9435022,7 L26.5418856,7 C25.5438115,7 24.7154779,7.81614277 24.7154779,8.84877815 L24.7154779,40.6366046 L10.0382064,40.6366046 C7.36139898,40.6366046 6.00347509,43.8616571 7.85025158,45.7963451 L30.5751079,69.6174048 C31.7649887,70.8648146 33.7187017,70.8648146 34.9289514,69.6380232 L58.120594,45.8169634 C60.011503,43.8822755 58.6518817,40.6366046 55.9547054,40.6366046 L40.7699099,40.6366046 Z" transform="matrix(1 0 0 -1 0 77.556)"/>
  </g>
</svg>
