<svg xmlns="http://www.w3.org/2000/svg" width="211" height="172" viewBox="0 0 211 172">
  <g fill="none" fill-rule="evenodd">
    <circle cx="124.8" cy="86" r="86" fill="#3EB34F" fill-rule="nonzero"/>
    <path fill="#FFF" fill-rule="nonzero" d="M124.5 91C136.958027 91 147 81.1637036 147 69 147 56.8362964 136.906873 47 124.5 47 112.041973 47 102 56.8362964 102 69 102 81.1637036 112.045908 91 124.5 91zM124.482211 87C105.855242 87 90.1787358 98.6710447 85.341215 114.622752 83.7441758 119.809456 87.955255 125 93.7595066 125L155.255184 125C161.059436 125 165.224112 119.813296 163.673476 114.622752 158.785685 98.6748838 143.109179 87 124.482211 87zM63.5454545 24.5454545L53.4545455 24.5454545 53.4545455 14.4545455C53.4545455 6.74413087 46.7104146-2.13162821e-14 39-2.13162821e-14 31.2895854-2.13162821e-14 24.5454545 6.74413087 24.5454545 14.4545455L24.5454545 24.5454545 14.4545455 24.5454545C6.74413087 24.5454545 6.97011893e-15 31.2895854 6.97011893e-15 39 6.97011893e-15 46.7104146 6.74413087 53.4545455 14.4545455 53.4545455L24.5454545 53.4545455 24.5454545 63.5454545C24.5454545 71.2558691 31.2895854 78 39 78 46.7104146 78 53.4545455 71.2558691 53.4545455 63.5454545L53.4545455 53.4545455 63.5454545 53.4545455C71.2558691 53.4545455 78 46.7104146 78 39 78 31.2895854 71.2558691 24.5454545 63.5454545 24.5454545z"/>
    <path fill="#3EB34F" d="M47.2965392,47.3172805 L47.2965392,61.6827195 C47.2965392,66.8114124 44.1193623,71 38.8839673,71 C33.6485723,71 30.4713954,66.8114124 30.4713954,61.6827195 L30.4713954,47.3172805 L16.4125719,47.3172805 C11.1864595,47.3172805 6,44.1286928 6,39 C6,33.8713072 11.1771769,30.6827195 16.4125719,30.6827195 L30.5920694,30.6827195 L30.5920694,16.3172805 C30.5920694,11.1885876 33.7692463,7 38.9953587,7 C44.2214711,7 47.4079306,11.1885876 47.4079306,16.3172805 L47.4079306,30.6827195 L61.5874281,30.6827195 C66.8135405,30.6827195 71,33.8713072 71,39 C70.8886086,44.1286928 66.7021491,47.3172805 61.4760367,47.3172805 L47.2965392,47.3172805 Z"/>
  </g>
</svg>
